<svg xmlns="http://www.w3.org/2000/svg" xmlns:xlink="http://www.w3.org/1999/xlink" width="600" zoomAndPan="magnify" viewBox="0 0 450 44.999999" height="60" preserveAspectRatio="xMidYMid meet" version="1.0"><defs><g/></defs><g fill="#000000" fill-opacity="1"><g transform="translate(7.437054, 32.70005)"><g><path d="M 8 0 C 6.738281 0 5.625 -0.296875 4.65625 -0.890625 C 3.6875 -1.492188 2.925781 -2.285156 2.375 -3.265625 C 1.832031 -4.242188 1.5625 -5.3125 1.5625 -6.46875 C 1.5625 -7.507812 1.804688 -8.484375 2.296875 -9.390625 C 2.785156 -10.304688 3.5 -11.03125 4.4375 -11.5625 C 3.519531 -12.144531 2.820312 -12.867188 2.34375 -13.734375 C 1.863281 -14.609375 1.625 -15.523438 1.625 -16.484375 C 1.625 -17.660156 1.898438 -18.726562 2.453125 -19.6875 C 3.015625 -20.644531 3.773438 -21.410156 4.734375 -21.984375 C 5.691406 -22.554688 6.75 -22.84375 7.90625 -22.84375 L 16.9375 -22.84375 L 16.9375 -20.078125 L 8.265625 -20.078125 C 7.585938 -20.078125 6.984375 -19.910156 6.453125 -19.578125 C 5.929688 -19.253906 5.519531 -18.828125 5.21875 -18.296875 C 4.914062 -17.765625 4.765625 -17.160156 4.765625 -16.484375 C 4.765625 -15.847656 4.921875 -15.269531 5.234375 -14.75 C 5.554688 -14.226562 5.988281 -13.8125 6.53125 -13.5 C 7.070312 -13.1875 7.671875 -13.03125 8.328125 -13.03125 L 15.734375 -13.03125 L 15.734375 -10.25 L 8.546875 -10.25 C 7.742188 -10.25 7.050781 -10.066406 6.46875 -9.703125 C 5.894531 -9.347656 5.453125 -8.878906 5.140625 -8.296875 C 4.828125 -7.722656 4.671875 -7.113281 4.671875 -6.46875 C 4.671875 -5.8125 4.820312 -5.195312 5.125 -4.625 C 5.425781 -4.0625 5.859375 -3.613281 6.421875 -3.28125 C 6.992188 -2.945312 7.660156 -2.78125 8.421875 -2.78125 L 16.9375 -2.78125 L 16.9375 0 Z M 8 0 "/></g></g></g><g fill="#000000" fill-opacity="1"><g transform="translate(24.015731, 32.70005)"><g><path d="M 9.40625 0.390625 C 8.664062 0.390625 7.992188 0.179688 7.390625 -0.234375 C 6.796875 -0.660156 6.359375 -1.269531 6.078125 -2.0625 L 0.65625 -16.640625 L 3.953125 -16.640625 L 8.78125 -3.171875 C 8.863281 -2.953125 8.957031 -2.796875 9.0625 -2.703125 C 9.175781 -2.617188 9.300781 -2.578125 9.4375 -2.578125 C 9.582031 -2.578125 9.703125 -2.617188 9.796875 -2.703125 C 9.898438 -2.796875 10 -2.953125 10.09375 -3.171875 L 14.953125 -16.640625 L 18.1875 -16.640625 L 12.765625 -2.0625 C 12.460938 -1.269531 12.015625 -0.660156 11.421875 -0.234375 C 10.835938 0.179688 10.164062 0.390625 9.40625 0.390625 Z M 9.40625 0.390625 "/></g></g></g><g fill="#000000" fill-opacity="1"><g transform="translate(40.398371, 32.70005)"><g><path d="M 10.84375 0 C 9.007812 0 7.382812 -0.34375 5.96875 -1.03125 C 4.5625 -1.71875 3.457031 -2.6875 2.65625 -3.9375 C 1.863281 -5.1875 1.46875 -6.648438 1.46875 -8.328125 C 1.46875 -9.972656 1.804688 -11.453125 2.484375 -12.765625 C 3.160156 -14.085938 4.09375 -15.128906 5.28125 -15.890625 C 6.476562 -16.648438 7.875 -17.03125 9.46875 -17.03125 C 11.1875 -17.03125 12.613281 -16.660156 13.75 -15.921875 C 14.894531 -15.179688 15.75 -14.1875 16.3125 -12.9375 C 16.882812 -11.6875 17.171875 -10.289062 17.171875 -8.75 C 17.171875 -8.507812 17.164062 -8.257812 17.15625 -8 C 17.144531 -7.738281 17.117188 -7.507812 17.078125 -7.3125 L 4.671875 -7.3125 C 4.773438 -6.289062 5.109375 -5.425781 5.671875 -4.71875 C 6.242188 -4.007812 6.96875 -3.472656 7.84375 -3.109375 C 8.726562 -2.753906 9.703125 -2.578125 10.765625 -2.578125 L 15.109375 -2.578125 L 15.109375 0 Z M 4.640625 -9.4375 L 14.140625 -9.4375 C 14.140625 -9.84375 14.09375 -10.28125 14 -10.75 C 13.914062 -11.21875 13.765625 -11.675781 13.546875 -12.125 C 13.328125 -12.570312 13.035156 -12.972656 12.671875 -13.328125 C 12.316406 -13.691406 11.875 -13.984375 11.34375 -14.203125 C 10.8125 -14.421875 10.1875 -14.53125 9.46875 -14.53125 C 8.707031 -14.53125 8.035156 -14.378906 7.453125 -14.078125 C 6.878906 -13.785156 6.382812 -13.394531 5.96875 -12.90625 C 5.5625 -12.414062 5.25 -11.863281 5.03125 -11.25 C 4.8125 -10.644531 4.679688 -10.039062 4.640625 -9.4375 Z M 4.640625 -9.4375 "/></g></g></g><g fill="#000000" fill-opacity="1"><g transform="translate(57.205506, 32.70005)"><g><path d="M 2.28125 0 L 2.28125 -11.90625 C 2.28125 -13.394531 2.695312 -14.554688 3.53125 -15.390625 C 4.375 -16.222656 5.535156 -16.640625 7.015625 -16.640625 L 10.4375 -16.640625 L 10.4375 -14.0625 L 7.578125 -14.0625 C 6.859375 -14.0625 6.296875 -13.851562 5.890625 -13.4375 C 5.484375 -13.03125 5.28125 -12.457031 5.28125 -11.71875 L 5.28125 0 Z M 2.28125 0 "/></g></g></g><g fill="#000000" fill-opacity="1"><g transform="translate(66.245091, 32.70005)"><g><path d="M 8.6875 6.625 L 8.6875 0.265625 C 7.46875 0.0859375 6.382812 -0.316406 5.4375 -0.953125 C 4.488281 -1.597656 3.738281 -2.4375 3.1875 -3.46875 C 2.644531 -4.507812 2.375 -5.691406 2.375 -7.015625 L 2.375 -16.640625 L 5.421875 -16.640625 L 5.421875 -7.046875 C 5.421875 -6.046875 5.632812 -5.179688 6.0625 -4.453125 C 6.5 -3.722656 7.082031 -3.160156 7.8125 -2.765625 C 8.539062 -2.378906 9.320312 -2.1875 10.15625 -2.1875 C 11 -2.1875 11.785156 -2.378906 12.515625 -2.765625 C 13.242188 -3.160156 13.832031 -3.722656 14.28125 -4.453125 C 14.726562 -5.179688 14.953125 -6.046875 14.953125 -7.046875 L 14.953125 -16.640625 L 17.953125 -16.640625 L 17.953125 -7.015625 C 17.953125 -5.691406 17.6875 -4.515625 17.15625 -3.484375 C 16.625 -2.460938 15.882812 -1.628906 14.9375 -0.984375 C 13.988281 -0.347656 12.90625 0.0664062 11.6875 0.265625 L 11.6875 6.625 Z M 8.6875 6.625 "/></g></g></g><g fill="#000000" fill-opacity="1"><g transform="translate(84.781978, 32.70005)"><g/></g></g><g fill="#000000" fill-opacity="1"><g transform="translate(91.634905, 32.70005)"><g><path d="M 2.484375 0 L 2.484375 -22.84375 L 9.796875 -22.84375 C 12.234375 -22.84375 14.335938 -22.351562 16.109375 -21.375 C 17.878906 -20.394531 19.253906 -19.046875 20.234375 -17.328125 C 21.210938 -15.609375 21.703125 -13.640625 21.703125 -11.421875 C 21.703125 -9.203125 21.210938 -7.234375 20.234375 -5.515625 C 19.253906 -3.796875 17.878906 -2.445312 16.109375 -1.46875 C 14.335938 -0.488281 12.234375 0 9.796875 0 Z M 5.609375 -2.78125 L 9.828125 -2.78125 C 11.523438 -2.78125 13.03125 -3.125 14.34375 -3.8125 C 15.664062 -4.507812 16.707031 -5.503906 17.46875 -6.796875 C 18.226562 -8.097656 18.609375 -9.640625 18.609375 -11.421875 C 18.609375 -13.234375 18.226562 -14.78125 17.46875 -16.0625 C 16.707031 -17.34375 15.664062 -18.332031 14.34375 -19.03125 C 13.03125 -19.726562 11.523438 -20.078125 9.828125 -20.078125 L 5.609375 -20.078125 Z M 5.609375 -2.78125 "/></g></g></g><g fill="#000000" fill-opacity="1"><g transform="translate(112.913282, 32.70005)"><g><path d="M 9.296875 0.390625 C 7.691406 0.390625 6.300781 0.00390625 5.125 -0.765625 C 3.945312 -1.535156 3.039062 -2.582031 2.40625 -3.90625 C 1.78125 -5.238281 1.46875 -6.710938 1.46875 -8.328125 C 1.46875 -9.953125 1.816406 -11.421875 2.515625 -12.734375 C 3.210938 -14.054688 4.210938 -15.101562 5.515625 -15.875 C 6.816406 -16.644531 8.382812 -17.03125 10.21875 -17.03125 C 11.976562 -17.03125 13.488281 -16.648438 14.75 -15.890625 C 16.007812 -15.128906 16.984375 -14.097656 17.671875 -12.796875 C 18.359375 -11.492188 18.703125 -10.035156 18.703125 -8.421875 L 18.703125 0 L 15.671875 0 L 15.671875 -3.390625 L 15.609375 -3.390625 C 15.273438 -2.765625 14.832031 -2.160156 14.28125 -1.578125 C 13.726562 -1.003906 13.035156 -0.53125 12.203125 -0.15625 C 11.378906 0.207031 10.410156 0.390625 9.296875 0.390625 Z M 10.09375 -2.1875 C 11.175781 -2.1875 12.132812 -2.453125 12.96875 -2.984375 C 13.8125 -3.515625 14.46875 -4.253906 14.9375 -5.203125 C 15.40625 -6.148438 15.640625 -7.210938 15.640625 -8.390625 C 15.640625 -9.546875 15.414062 -10.578125 14.96875 -11.484375 C 14.519531 -12.398438 13.878906 -13.125 13.046875 -13.65625 C 12.222656 -14.1875 11.257812 -14.453125 10.15625 -14.453125 C 8.976562 -14.453125 7.96875 -14.179688 7.125 -13.640625 C 6.289062 -13.097656 5.648438 -12.363281 5.203125 -11.4375 C 4.753906 -10.507812 4.53125 -9.460938 4.53125 -8.296875 C 4.53125 -7.160156 4.75 -6.128906 5.1875 -5.203125 C 5.625 -4.273438 6.253906 -3.539062 7.078125 -3 C 7.910156 -2.457031 8.914062 -2.1875 10.09375 -2.1875 Z M 10.09375 -2.1875 "/></g></g></g><g fill="#000000" fill-opacity="1"><g transform="translate(132.200809, 32.70005)"><g><path d="M 8.0625 0 C 6.582031 0 5.421875 -0.421875 4.578125 -1.265625 C 3.742188 -2.117188 3.328125 -3.273438 3.328125 -4.734375 L 3.328125 -20.828125 L 6.328125 -20.828125 L 6.328125 -4.921875 C 6.328125 -4.210938 6.53125 -3.644531 6.9375 -3.21875 C 7.34375 -2.789062 7.898438 -2.578125 8.609375 -2.578125 L 11.984375 -2.578125 L 11.984375 0 Z M 0.453125 -14.0625 L 0.453125 -16.640625 L 12.046875 -16.640625 L 12.046875 -14.0625 Z M 0.453125 -14.0625 "/></g></g></g><g fill="#000000" fill-opacity="1"><g transform="translate(143.165782, 32.70005)"><g><path d="M 9.296875 0.390625 C 7.691406 0.390625 6.300781 0.00390625 5.125 -0.765625 C 3.945312 -1.535156 3.039062 -2.582031 2.40625 -3.90625 C 1.78125 -5.238281 1.46875 -6.710938 1.46875 -8.328125 C 1.46875 -9.953125 1.816406 -11.421875 2.515625 -12.734375 C 3.210938 -14.054688 4.210938 -15.101562 5.515625 -15.875 C 6.816406 -16.644531 8.382812 -17.03125 10.21875 -17.03125 C 11.976562 -17.03125 13.488281 -16.648438 14.75 -15.890625 C 16.007812 -15.128906 16.984375 -14.097656 17.671875 -12.796875 C 18.359375 -11.492188 18.703125 -10.035156 18.703125 -8.421875 L 18.703125 0 L 15.671875 0 L 15.671875 -3.390625 L 15.609375 -3.390625 C 15.273438 -2.765625 14.832031 -2.160156 14.28125 -1.578125 C 13.726562 -1.003906 13.035156 -0.53125 12.203125 -0.15625 C 11.378906 0.207031 10.410156 0.390625 9.296875 0.390625 Z M 10.09375 -2.1875 C 11.175781 -2.1875 12.132812 -2.453125 12.96875 -2.984375 C 13.8125 -3.515625 14.46875 -4.253906 14.9375 -5.203125 C 15.40625 -6.148438 15.640625 -7.210938 15.640625 -8.390625 C 15.640625 -9.546875 15.414062 -10.578125 14.96875 -11.484375 C 14.519531 -12.398438 13.878906 -13.125 13.046875 -13.65625 C 12.222656 -14.1875 11.257812 -14.453125 10.15625 -14.453125 C 8.976562 -14.453125 7.96875 -14.179688 7.125 -13.640625 C 6.289062 -13.097656 5.648438 -12.363281 5.203125 -11.4375 C 4.753906 -10.507812 4.53125 -9.460938 4.53125 -8.296875 C 4.53125 -7.160156 4.75 -6.128906 5.1875 -5.203125 C 5.625 -4.273438 6.253906 -3.539062 7.078125 -3 C 7.910156 -2.457031 8.914062 -2.1875 10.09375 -2.1875 Z M 10.09375 -2.1875 "/></g></g></g><g fill="#000000" fill-opacity="1"><g transform="translate(162.453309, 32.70005)"><g><path d="M 10.796875 0.390625 C 9.191406 0.390625 7.742188 0.0390625 6.453125 -0.65625 C 5.171875 -1.351562 4.15625 -2.359375 3.40625 -3.671875 C 2.65625 -4.984375 2.28125 -6.566406 2.28125 -8.421875 L 2.28125 -23.828125 L 5.28125 -23.828125 L 5.28125 -13.671875 L 5.359375 -13.671875 C 5.722656 -14.347656 6.203125 -14.9375 6.796875 -15.4375 C 7.398438 -15.9375 8.085938 -16.328125 8.859375 -16.609375 C 9.628906 -16.890625 10.441406 -17.03125 11.296875 -17.03125 C 12.835938 -17.03125 14.21875 -16.679688 15.4375 -15.984375 C 16.65625 -15.296875 17.617188 -14.3125 18.328125 -13.03125 C 19.035156 -11.757812 19.390625 -10.253906 19.390625 -8.515625 C 19.390625 -7.148438 19.175781 -5.914062 18.75 -4.8125 C 18.320312 -3.71875 17.726562 -2.773438 16.96875 -1.984375 C 16.207031 -1.203125 15.304688 -0.609375 14.265625 -0.203125 C 13.222656 0.191406 12.066406 0.390625 10.796875 0.390625 Z M 10.796875 -2.1875 C 11.828125 -2.1875 12.757812 -2.4375 13.59375 -2.9375 C 14.425781 -3.4375 15.09375 -4.144531 15.59375 -5.0625 C 16.101562 -5.976562 16.359375 -7.066406 16.359375 -8.328125 C 16.359375 -9.546875 16.113281 -10.609375 15.625 -11.515625 C 15.132812 -12.429688 14.472656 -13.148438 13.640625 -13.671875 C 12.816406 -14.191406 11.882812 -14.453125 10.84375 -14.453125 C 9.8125 -14.453125 8.878906 -14.203125 8.046875 -13.703125 C 7.210938 -13.203125 6.550781 -12.488281 6.0625 -11.5625 C 5.570312 -10.644531 5.328125 -9.554688 5.328125 -8.296875 C 5.328125 -7.054688 5.570312 -5.976562 6.0625 -5.0625 C 6.550781 -4.144531 7.210938 -3.4375 8.046875 -2.9375 C 8.878906 -2.4375 9.796875 -2.1875 10.796875 -2.1875 Z M 10.796875 -2.1875 "/></g></g></g><g fill="#000000" fill-opacity="1"><g transform="translate(181.512379, 32.70005)"><g><path d="M 9.296875 0.390625 C 7.691406 0.390625 6.300781 0.00390625 5.125 -0.765625 C 3.945312 -1.535156 3.039062 -2.582031 2.40625 -3.90625 C 1.78125 -5.238281 1.46875 -6.710938 1.46875 -8.328125 C 1.46875 -9.953125 1.816406 -11.421875 2.515625 -12.734375 C 3.210938 -14.054688 4.210938 -15.101562 5.515625 -15.875 C 6.816406 -16.644531 8.382812 -17.03125 10.21875 -17.03125 C 11.976562 -17.03125 13.488281 -16.648438 14.75 -15.890625 C 16.007812 -15.128906 16.984375 -14.097656 17.671875 -12.796875 C 18.359375 -11.492188 18.703125 -10.035156 18.703125 -8.421875 L 18.703125 0 L 15.671875 0 L 15.671875 -3.390625 L 15.609375 -3.390625 C 15.273438 -2.765625 14.832031 -2.160156 14.28125 -1.578125 C 13.726562 -1.003906 13.035156 -0.53125 12.203125 -0.15625 C 11.378906 0.207031 10.410156 0.390625 9.296875 0.390625 Z M 10.09375 -2.1875 C 11.175781 -2.1875 12.132812 -2.453125 12.96875 -2.984375 C 13.8125 -3.515625 14.46875 -4.253906 14.9375 -5.203125 C 15.40625 -6.148438 15.640625 -7.210938 15.640625 -8.390625 C 15.640625 -9.546875 15.414062 -10.578125 14.96875 -11.484375 C 14.519531 -12.398438 13.878906 -13.125 13.046875 -13.65625 C 12.222656 -14.1875 11.257812 -14.453125 10.15625 -14.453125 C 8.976562 -14.453125 7.96875 -14.179688 7.125 -13.640625 C 6.289062 -13.097656 5.648438 -12.363281 5.203125 -11.4375 C 4.753906 -10.507812 4.53125 -9.460938 4.53125 -8.296875 C 4.53125 -7.160156 4.75 -6.128906 5.1875 -5.203125 C 5.625 -4.273438 6.253906 -3.539062 7.078125 -3 C 7.910156 -2.457031 8.914062 -2.1875 10.09375 -2.1875 Z M 10.09375 -2.1875 "/></g></g></g><g fill="#000000" fill-opacity="1"><g transform="translate(200.799895, 32.70005)"><g><path d="M 2.15625 0 L 2.15625 -2.578125 L 10.125 -2.578125 C 10.644531 -2.578125 11.09375 -2.691406 11.46875 -2.921875 C 11.851562 -3.148438 12.140625 -3.445312 12.328125 -3.8125 C 12.523438 -4.1875 12.625 -4.582031 12.625 -5 C 12.625 -5.382812 12.535156 -5.742188 12.359375 -6.078125 C 12.191406 -6.421875 11.925781 -6.695312 11.5625 -6.90625 C 11.207031 -7.113281 10.78125 -7.21875 10.28125 -7.21875 L 6.921875 -7.21875 C 5.859375 -7.21875 4.925781 -7.394531 4.125 -7.75 C 3.332031 -8.113281 2.710938 -8.640625 2.265625 -9.328125 C 1.816406 -10.023438 1.59375 -10.875 1.59375 -11.875 C 1.59375 -12.726562 1.800781 -13.515625 2.21875 -14.234375 C 2.632812 -14.953125 3.210938 -15.53125 3.953125 -15.96875 C 4.691406 -16.414062 5.539062 -16.640625 6.5 -16.640625 L 14.171875 -16.640625 L 14.171875 -14.0625 L 6.796875 -14.0625 C 6.117188 -14.0625 5.582031 -13.851562 5.1875 -13.4375 C 4.800781 -13.03125 4.609375 -12.546875 4.609375 -11.984375 C 4.609375 -11.429688 4.804688 -10.953125 5.203125 -10.546875 C 5.609375 -10.148438 6.179688 -9.953125 6.921875 -9.953125 L 10.125 -9.953125 C 11.3125 -9.953125 12.3125 -9.757812 13.125 -9.375 C 13.945312 -9 14.570312 -8.453125 15 -7.734375 C 15.425781 -7.015625 15.640625 -6.132812 15.640625 -5.09375 C 15.640625 -4.195312 15.421875 -3.363281 14.984375 -2.59375 C 14.546875 -1.820312 13.941406 -1.195312 13.171875 -0.71875 C 12.398438 -0.238281 11.503906 0 10.484375 0 Z M 2.15625 0 "/></g></g></g><g fill="#000000" fill-opacity="1"><g transform="translate(216.203665, 32.70005)"><g><path d="M 10.84375 0 C 9.007812 0 7.382812 -0.34375 5.96875 -1.03125 C 4.5625 -1.71875 3.457031 -2.6875 2.65625 -3.9375 C 1.863281 -5.1875 1.46875 -6.648438 1.46875 -8.328125 C 1.46875 -9.972656 1.804688 -11.453125 2.484375 -12.765625 C 3.160156 -14.085938 4.09375 -15.128906 5.28125 -15.890625 C 6.476562 -16.648438 7.875 -17.03125 9.46875 -17.03125 C 11.1875 -17.03125 12.613281 -16.660156 13.75 -15.921875 C 14.894531 -15.179688 15.75 -14.1875 16.3125 -12.9375 C 16.882812 -11.6875 17.171875 -10.289062 17.171875 -8.75 C 17.171875 -8.507812 17.164062 -8.257812 17.15625 -8 C 17.144531 -7.738281 17.117188 -7.507812 17.078125 -7.3125 L 4.671875 -7.3125 C 4.773438 -6.289062 5.109375 -5.425781 5.671875 -4.71875 C 6.242188 -4.007812 6.96875 -3.472656 7.84375 -3.109375 C 8.726562 -2.753906 9.703125 -2.578125 10.765625 -2.578125 L 15.109375 -2.578125 L 15.109375 0 Z M 4.640625 -9.4375 L 14.140625 -9.4375 C 14.140625 -9.84375 14.09375 -10.28125 14 -10.75 C 13.914062 -11.21875 13.765625 -11.675781 13.546875 -12.125 C 13.328125 -12.570312 13.035156 -12.972656 12.671875 -13.328125 C 12.316406 -13.691406 11.875 -13.984375 11.34375 -14.203125 C 10.8125 -14.421875 10.1875 -14.53125 9.46875 -14.53125 C 8.707031 -14.53125 8.035156 -14.378906 7.453125 -14.078125 C 6.878906 -13.785156 6.382812 -13.394531 5.96875 -12.90625 C 5.5625 -12.414062 5.25 -11.863281 5.03125 -11.25 C 4.8125 -10.644531 4.679688 -10.039062 4.640625 -9.4375 Z M 4.640625 -9.4375 "/></g></g></g><g fill="#000000" fill-opacity="1"><g transform="translate(233.0108, 32.70005)"><g><path d="M 1.234375 4.890625 L 2.703125 0.203125 C 2.222656 0.046875 1.859375 -0.226562 1.609375 -0.625 C 1.359375 -1.03125 1.234375 -1.441406 1.234375 -1.859375 C 1.234375 -2.472656 1.445312 -2.976562 1.875 -3.375 C 2.300781 -3.78125 2.804688 -3.984375 3.390625 -3.984375 C 4.046875 -3.984375 4.566406 -3.765625 4.953125 -3.328125 C 5.347656 -2.890625 5.546875 -2.367188 5.546875 -1.765625 C 5.546875 -1.347656 5.515625 -0.957031 5.453125 -0.59375 C 5.390625 -0.238281 5.269531 0.164062 5.09375 0.625 L 3.78125 4.890625 Z M 1.234375 4.890625 "/></g></g></g><g fill="#000000" fill-opacity="1"><g transform="translate(238.003445, 32.70005)"><g/></g></g><g fill="#000000" fill-opacity="1"><g transform="translate(244.85635, 32.70005)"><g><path d="M 13.25 0.421875 C 11.445312 0.421875 9.816406 0.113281 8.359375 -0.5 C 6.898438 -1.125 5.648438 -1.976562 4.609375 -3.0625 C 3.578125 -4.15625 2.78125 -5.421875 2.21875 -6.859375 C 1.65625 -8.296875 1.375 -9.828125 1.375 -11.453125 C 1.375 -13.066406 1.65625 -14.59375 2.21875 -16.03125 C 2.78125 -17.46875 3.578125 -18.726562 4.609375 -19.8125 C 5.648438 -20.894531 6.898438 -21.738281 8.359375 -22.34375 C 9.816406 -22.957031 11.445312 -23.265625 13.25 -23.265625 C 15.0625 -23.265625 16.691406 -22.957031 18.140625 -22.34375 C 19.597656 -21.738281 20.84375 -20.894531 21.875 -19.8125 C 22.914062 -18.726562 23.71875 -17.46875 24.28125 -16.03125 C 24.851562 -14.59375 25.140625 -13.054688 25.140625 -11.421875 C 25.140625 -9.816406 24.851562 -8.296875 24.28125 -6.859375 C 23.71875 -5.421875 22.914062 -4.15625 21.875 -3.0625 C 20.84375 -1.976562 19.597656 -1.125 18.140625 -0.5 C 16.691406 0.113281 15.0625 0.421875 13.25 0.421875 Z M 13.25 -2.34375 C 14.488281 -2.34375 15.640625 -2.570312 16.703125 -3.03125 C 17.773438 -3.488281 18.707031 -4.128906 19.5 -4.953125 C 20.289062 -5.785156 20.90625 -6.75 21.34375 -7.84375 C 21.78125 -8.945312 22 -10.148438 22 -11.453125 C 22 -12.734375 21.78125 -13.929688 21.34375 -15.046875 C 20.90625 -16.160156 20.296875 -17.125 19.515625 -17.9375 C 18.734375 -18.75 17.800781 -19.378906 16.71875 -19.828125 C 15.644531 -20.273438 14.488281 -20.5 13.25 -20.5 C 11.988281 -20.5 10.820312 -20.273438 9.75 -19.828125 C 8.6875 -19.378906 7.765625 -18.75 6.984375 -17.9375 C 6.203125 -17.125 5.59375 -16.160156 5.15625 -15.046875 C 4.71875 -13.929688 4.5 -12.722656 4.5 -11.421875 C 4.5 -10.140625 4.71875 -8.945312 5.15625 -7.84375 C 5.59375 -6.75 6.203125 -5.785156 6.984375 -4.953125 C 7.765625 -4.128906 8.6875 -3.488281 9.75 -3.03125 C 10.820312 -2.570312 11.988281 -2.34375 13.25 -2.34375 Z M 13.25 -2.34375 "/></g></g></g><g fill="#000000" fill-opacity="1"><g transform="translate(269.561579, 32.70005)"><g><path d="M 2.375 0 L 2.375 -9.625 C 2.375 -11.101562 2.707031 -12.394531 3.375 -13.5 C 4.039062 -14.613281 4.960938 -15.476562 6.140625 -16.09375 C 7.316406 -16.71875 8.65625 -17.03125 10.15625 -17.03125 C 11.675781 -17.03125 13.015625 -16.71875 14.171875 -16.09375 C 15.335938 -15.476562 16.253906 -14.613281 16.921875 -13.5 C 17.585938 -12.394531 17.921875 -11.101562 17.921875 -9.625 L 17.921875 0 L 14.921875 0 L 14.921875 -9.59375 C 14.921875 -10.59375 14.695312 -11.457031 14.25 -12.1875 C 13.800781 -12.914062 13.210938 -13.472656 12.484375 -13.859375 C 11.753906 -14.253906 10.976562 -14.453125 10.15625 -14.453125 C 9.320312 -14.453125 8.539062 -14.253906 7.8125 -13.859375 C 7.082031 -13.472656 6.492188 -12.914062 6.046875 -12.1875 C 5.609375 -11.457031 5.390625 -10.59375 5.390625 -9.59375 L 5.390625 0 Z M 2.375 0 "/></g></g></g><g fill="#000000" fill-opacity="1"><g transform="translate(288.06585, 32.70005)"><g><path d="M 10.84375 0 C 9.007812 0 7.382812 -0.34375 5.96875 -1.03125 C 4.5625 -1.71875 3.457031 -2.6875 2.65625 -3.9375 C 1.863281 -5.1875 1.46875 -6.648438 1.46875 -8.328125 C 1.46875 -9.972656 1.804688 -11.453125 2.484375 -12.765625 C 3.160156 -14.085938 4.09375 -15.128906 5.28125 -15.890625 C 6.476562 -16.648438 7.875 -17.03125 9.46875 -17.03125 C 11.1875 -17.03125 12.613281 -16.660156 13.75 -15.921875 C 14.894531 -15.179688 15.75 -14.1875 16.3125 -12.9375 C 16.882812 -11.6875 17.171875 -10.289062 17.171875 -8.75 C 17.171875 -8.507812 17.164062 -8.257812 17.15625 -8 C 17.144531 -7.738281 17.117188 -7.507812 17.078125 -7.3125 L 4.671875 -7.3125 C 4.773438 -6.289062 5.109375 -5.425781 5.671875 -4.71875 C 6.242188 -4.007812 6.96875 -3.472656 7.84375 -3.109375 C 8.726562 -2.753906 9.703125 -2.578125 10.765625 -2.578125 L 15.109375 -2.578125 L 15.109375 0 Z M 4.640625 -9.4375 L 14.140625 -9.4375 C 14.140625 -9.84375 14.09375 -10.28125 14 -10.75 C 13.914062 -11.21875 13.765625 -11.675781 13.546875 -12.125 C 13.328125 -12.570312 13.035156 -12.972656 12.671875 -13.328125 C 12.316406 -13.691406 11.875 -13.984375 11.34375 -14.203125 C 10.8125 -14.421875 10.1875 -14.53125 9.46875 -14.53125 C 8.707031 -14.53125 8.035156 -14.378906 7.453125 -14.078125 C 6.878906 -13.785156 6.382812 -13.394531 5.96875 -12.90625 C 5.5625 -12.414062 5.25 -11.863281 5.03125 -11.25 C 4.8125 -10.644531 4.679688 -10.039062 4.640625 -9.4375 Z M 4.640625 -9.4375 "/></g></g></g><g fill="#000000" fill-opacity="1"><g transform="translate(304.872963, 32.70005)"><g/></g></g><g fill="#000000" fill-opacity="1"><g transform="translate(311.725913, 32.70005)"><g><path d="M 2.484375 0 L 2.484375 -22.84375 L 12.109375 -22.84375 C 13.546875 -22.84375 14.851562 -22.519531 16.03125 -21.875 C 17.207031 -21.238281 18.140625 -20.34375 18.828125 -19.1875 C 19.523438 -18.039062 19.875 -16.691406 19.875 -15.140625 C 19.875 -13.660156 19.53125 -12.335938 18.84375 -11.171875 C 18.164062 -10.015625 17.238281 -9.109375 16.0625 -8.453125 C 14.882812 -7.796875 13.546875 -7.46875 12.046875 -7.46875 L 5.609375 -7.46875 L 5.609375 0 Z M 5.609375 -10.25 L 11.6875 -10.25 C 12.625 -10.25 13.476562 -10.4375 14.25 -10.8125 C 15.019531 -11.195312 15.628906 -11.757812 16.078125 -12.5 C 16.523438 -13.238281 16.75 -14.117188 16.75 -15.140625 C 16.75 -16.191406 16.519531 -17.082031 16.0625 -17.8125 C 15.601562 -18.539062 14.992188 -19.097656 14.234375 -19.484375 C 13.472656 -19.878906 12.632812 -20.078125 11.71875 -20.078125 L 5.609375 -20.078125 Z M 5.609375 -10.25 "/></g></g></g><g fill="#000000" fill-opacity="1"><g transform="translate(331.078695, 32.70005)"><g><path d="M 2.375 0 L 2.375 -23.828125 L 5.390625 -23.828125 L 5.390625 0 Z M 2.375 0 "/></g></g></g><g fill="#000000" fill-opacity="1"><g transform="translate(337.050451, 32.70005)"><g><path d="M 9.296875 0.390625 C 7.691406 0.390625 6.300781 0.00390625 5.125 -0.765625 C 3.945312 -1.535156 3.039062 -2.582031 2.40625 -3.90625 C 1.78125 -5.238281 1.46875 -6.710938 1.46875 -8.328125 C 1.46875 -9.953125 1.816406 -11.421875 2.515625 -12.734375 C 3.210938 -14.054688 4.210938 -15.101562 5.515625 -15.875 C 6.816406 -16.644531 8.382812 -17.03125 10.21875 -17.03125 C 11.976562 -17.03125 13.488281 -16.648438 14.75 -15.890625 C 16.007812 -15.128906 16.984375 -14.097656 17.671875 -12.796875 C 18.359375 -11.492188 18.703125 -10.035156 18.703125 -8.421875 L 18.703125 0 L 15.671875 0 L 15.671875 -3.390625 L 15.609375 -3.390625 C 15.273438 -2.765625 14.832031 -2.160156 14.28125 -1.578125 C 13.726562 -1.003906 13.035156 -0.53125 12.203125 -0.15625 C 11.378906 0.207031 10.410156 0.390625 9.296875 0.390625 Z M 10.09375 -2.1875 C 11.175781 -2.1875 12.132812 -2.453125 12.96875 -2.984375 C 13.8125 -3.515625 14.46875 -4.253906 14.9375 -5.203125 C 15.40625 -6.148438 15.640625 -7.210938 15.640625 -8.390625 C 15.640625 -9.546875 15.414062 -10.578125 14.96875 -11.484375 C 14.519531 -12.398438 13.878906 -13.125 13.046875 -13.65625 C 12.222656 -14.1875 11.257812 -14.453125 10.15625 -14.453125 C 8.976562 -14.453125 7.96875 -14.179688 7.125 -13.640625 C 6.289062 -13.097656 5.648438 -12.363281 5.203125 -11.4375 C 4.753906 -10.507812 4.53125 -9.460938 4.53125 -8.296875 C 4.53125 -7.160156 4.75 -6.128906 5.1875 -5.203125 C 5.625 -4.273438 6.253906 -3.539062 7.078125 -3 C 7.910156 -2.457031 8.914062 -2.1875 10.09375 -2.1875 Z M 10.09375 -2.1875 "/></g></g></g><g fill="#000000" fill-opacity="1"><g transform="translate(356.337956, 32.70005)"><g><path d="M 8.0625 0 C 6.582031 0 5.421875 -0.421875 4.578125 -1.265625 C 3.742188 -2.117188 3.328125 -3.273438 3.328125 -4.734375 L 3.328125 -20.828125 L 6.328125 -20.828125 L 6.328125 -4.921875 C 6.328125 -4.210938 6.53125 -3.644531 6.9375 -3.21875 C 7.34375 -2.789062 7.898438 -2.578125 8.609375 -2.578125 L 11.984375 -2.578125 L 11.984375 0 Z M 0.453125 -14.0625 L 0.453125 -16.640625 L 12.046875 -16.640625 L 12.046875 -14.0625 Z M 0.453125 -14.0625 "/></g></g></g><g fill="#000000" fill-opacity="1"><g transform="translate(367.825306, 32.70005)"><g><path d="M 3.359375 0 L 3.359375 -14.0625 L 0.453125 -14.0625 L 0.453125 -16.640625 L 3.359375 -16.640625 L 3.359375 -19.09375 C 3.359375 -20.570312 3.773438 -21.726562 4.609375 -22.5625 C 5.453125 -23.40625 6.613281 -23.828125 8.09375 -23.828125 L 12.203125 -23.828125 L 12.203125 -21.25 L 8.6875 -21.25 C 7.945312 -21.25 7.378906 -21.039062 6.984375 -20.625 C 6.585938 -20.21875 6.390625 -19.644531 6.390625 -18.90625 L 6.390625 -16.640625 L 11.5625 -16.640625 L 11.5625 -14.0625 L 6.390625 -14.0625 L 6.390625 0 Z M 3.359375 0 "/></g></g></g><g fill="#000000" fill-opacity="1"><g transform="translate(377.190692, 32.70005)"><g><path d="M 10.21875 0.390625 C 8.519531 0.390625 7.015625 0.00390625 5.703125 -0.765625 C 4.398438 -1.535156 3.367188 -2.578125 2.609375 -3.890625 C 1.847656 -5.210938 1.46875 -6.691406 1.46875 -8.328125 C 1.46875 -9.953125 1.847656 -11.421875 2.609375 -12.734375 C 3.367188 -14.054688 4.398438 -15.101562 5.703125 -15.875 C 7.015625 -16.644531 8.519531 -17.03125 10.21875 -17.03125 C 11.914062 -17.03125 13.421875 -16.644531 14.734375 -15.875 C 16.054688 -15.101562 17.09375 -14.0625 17.84375 -12.75 C 18.59375 -11.445312 18.96875 -9.972656 18.96875 -8.328125 C 18.96875 -6.691406 18.59375 -5.210938 17.84375 -3.890625 C 17.09375 -2.578125 16.054688 -1.535156 14.734375 -0.765625 C 13.421875 0.00390625 11.914062 0.390625 10.21875 0.390625 Z M 10.21875 -2.1875 C 11.375 -2.1875 12.375 -2.457031 13.21875 -3 C 14.070312 -3.539062 14.734375 -4.273438 15.203125 -5.203125 C 15.679688 -6.128906 15.921875 -7.171875 15.921875 -8.328125 C 15.921875 -9.472656 15.679688 -10.507812 15.203125 -11.4375 C 14.734375 -12.363281 14.070312 -13.097656 13.21875 -13.640625 C 12.375 -14.179688 11.375 -14.453125 10.21875 -14.453125 C 9.082031 -14.453125 8.082031 -14.179688 7.21875 -13.640625 C 6.363281 -13.097656 5.695312 -12.363281 5.21875 -11.4375 C 4.738281 -10.507812 4.5 -9.472656 4.5 -8.328125 C 4.5 -7.171875 4.738281 -6.128906 5.21875 -5.203125 C 5.695312 -4.273438 6.363281 -3.539062 7.21875 -3 C 8.082031 -2.457031 9.082031 -2.1875 10.21875 -2.1875 Z M 10.21875 -2.1875 "/></g></g></g><g fill="#000000" fill-opacity="1"><g transform="translate(395.825472, 32.70005)"><g><path d="M 2.28125 0 L 2.28125 -11.90625 C 2.28125 -13.394531 2.695312 -14.554688 3.53125 -15.390625 C 4.375 -16.222656 5.535156 -16.640625 7.015625 -16.640625 L 10.4375 -16.640625 L 10.4375 -14.0625 L 7.578125 -14.0625 C 6.859375 -14.0625 6.296875 -13.851562 5.890625 -13.4375 C 5.484375 -13.03125 5.28125 -12.457031 5.28125 -11.71875 L 5.28125 0 Z M 2.28125 0 "/></g></g></g><g fill="#000000" fill-opacity="1"><g transform="translate(404.865068, 32.70005)"><g><path d="M 2.375 0 L 2.375 -10.015625 C 2.375 -11.304688 2.664062 -12.484375 3.25 -13.546875 C 3.84375 -14.609375 4.691406 -15.453125 5.796875 -16.078125 C 6.910156 -16.710938 8.253906 -17.03125 9.828125 -17.03125 C 10.585938 -17.03125 11.347656 -16.925781 12.109375 -16.71875 C 12.867188 -16.519531 13.570312 -16.175781 14.21875 -15.6875 C 14.875 -15.195312 15.398438 -14.535156 15.796875 -13.703125 L 15.828125 -13.703125 C 16.265625 -14.535156 16.804688 -15.195312 17.453125 -15.6875 C 18.109375 -16.175781 18.816406 -16.519531 19.578125 -16.71875 C 20.347656 -16.925781 21.125 -17.03125 21.90625 -17.03125 C 23.445312 -17.03125 24.769531 -16.710938 25.875 -16.078125 C 26.988281 -15.453125 27.835938 -14.609375 28.421875 -13.546875 C 29.015625 -12.484375 29.3125 -11.304688 29.3125 -10.015625 L 29.3125 0 L 26.3125 0 L 26.3125 -10.015625 C 26.3125 -10.847656 26.113281 -11.597656 25.71875 -12.265625 C 25.332031 -12.941406 24.804688 -13.472656 24.140625 -13.859375 C 23.472656 -14.253906 22.71875 -14.453125 21.875 -14.453125 C 21.039062 -14.453125 20.273438 -14.25 19.578125 -13.84375 C 18.890625 -13.445312 18.34375 -12.914062 17.9375 -12.25 C 17.53125 -11.59375 17.328125 -10.847656 17.328125 -10.015625 L 17.328125 0 L 14.328125 0 L 14.328125 -10.015625 C 14.328125 -10.847656 14.125 -11.59375 13.71875 -12.25 C 13.320312 -12.914062 12.78125 -13.445312 12.09375 -13.84375 C 11.40625 -14.25 10.640625 -14.453125 9.796875 -14.453125 C 8.960938 -14.453125 8.210938 -14.253906 7.546875 -13.859375 C 6.890625 -13.472656 6.363281 -12.941406 5.96875 -12.265625 C 5.582031 -11.597656 5.390625 -10.847656 5.390625 -10.015625 L 5.390625 0 Z M 2.375 0 "/></g></g></g></svg>