<svg xmlns="http://www.w3.org/2000/svg" xmlns:xlink="http://www.w3.org/1999/xlink" width="250" zoomAndPan="magnify" viewBox="0 0 187.5 60" height="80" preserveAspectRatio="xMidYMid meet" version="1.0"><defs><g/><clipPath id="33101267d2"><path d="M 20 0.078125 L 166 0.078125 L 166 59.917969 L 20 59.917969 Z M 20 0.078125 " clip-rule="nonzero"/></clipPath><clipPath id="bf6d33939b"><rect x="0" width="146" y="0" height="60"/></clipPath></defs><g clip-path="url(#33101267d2)"><g transform="matrix(1, 0, 0, 1, 20, -0.00000000000000501)"><g clip-path="url(#bf6d33939b)"><g fill="#222222" fill-opacity="1"><g transform="translate(1.133065, 46.866826)"><g><path d="M 13.203125 0.59375 C 10.929688 0.59375 8.925781 0.0078125 7.1875 -1.15625 C 5.457031 -2.320312 4.109375 -3.894531 3.140625 -5.875 C 2.179688 -7.863281 1.703125 -10.109375 1.703125 -12.609375 C 1.703125 -15.203125 2.269531 -17.523438 3.40625 -19.578125 C 4.539062 -21.628906 6.148438 -23.253906 8.234375 -24.453125 C 10.316406 -25.660156 12.773438 -26.265625 15.609375 -26.265625 C 18.472656 -26.265625 20.910156 -25.671875 22.921875 -24.484375 C 24.941406 -23.296875 26.492188 -21.675781 27.578125 -19.625 C 28.660156 -17.582031 29.203125 -15.289062 29.203125 -12.75 L 29.203125 0 L 21.609375 0 L 21.609375 -4.09375 L 21.40625 -4.09375 C 20.9375 -3.195312 20.332031 -2.390625 19.59375 -1.671875 C 18.863281 -0.953125 17.972656 -0.394531 16.921875 0 C 15.878906 0.394531 14.640625 0.59375 13.203125 0.59375 Z M 15.5 -6.109375 C 16.664062 -6.109375 17.691406 -6.398438 18.578125 -6.984375 C 19.460938 -7.566406 20.140625 -8.375 20.609375 -9.40625 C 21.078125 -10.4375 21.3125 -11.585938 21.3125 -12.859375 C 21.3125 -14.085938 21.078125 -15.203125 20.609375 -16.203125 C 20.140625 -17.203125 19.460938 -17.992188 18.578125 -18.578125 C 17.691406 -19.160156 16.664062 -19.453125 15.5 -19.453125 C 14.300781 -19.453125 13.25 -19.160156 12.34375 -18.578125 C 11.445312 -17.992188 10.765625 -17.203125 10.296875 -16.203125 C 9.835938 -15.203125 9.609375 -14.085938 9.609375 -12.859375 C 9.609375 -11.585938 9.835938 -10.4375 10.296875 -9.40625 C 10.765625 -8.375 11.445312 -7.566406 12.34375 -6.984375 C 13.25 -6.398438 14.300781 -6.109375 15.5 -6.109375 Z M 15.5 -6.109375 "/></g></g></g><g fill="#222222" fill-opacity="1"><g transform="translate(28.537801, 46.866826)"><g><path d="M 15.5 0 C 12.832031 0 10.460938 -0.554688 8.390625 -1.671875 C 6.328125 -2.785156 4.695312 -4.300781 3.5 -6.21875 C 2.300781 -8.144531 1.703125 -10.335938 1.703125 -12.796875 C 1.703125 -15.265625 2.300781 -17.457031 3.5 -19.375 C 4.695312 -21.289062 6.328125 -22.816406 8.390625 -23.953125 C 10.460938 -25.085938 12.832031 -25.65625 15.5 -25.65625 L 19.359375 -25.65625 L 19.359375 -19.109375 L 15.8125 -19.109375 C 14.507812 -19.109375 13.390625 -18.832031 12.453125 -18.28125 C 11.515625 -17.726562 10.785156 -16.976562 10.265625 -16.03125 C 9.753906 -15.082031 9.5 -14.003906 9.5 -12.796875 C 9.5 -11.597656 9.753906 -10.523438 10.265625 -9.578125 C 10.785156 -8.628906 11.515625 -7.878906 12.453125 -7.328125 C 13.390625 -6.773438 14.507812 -6.5 15.8125 -6.5 L 19.359375 -6.5 L 19.359375 0 Z M 15.5 0 "/></g></g></g><g fill="#222222" fill-opacity="1"><g transform="translate(44.640246, 46.866826)"><g><path d="M 12.296875 0 C 9.929688 0 8.082031 -0.671875 6.75 -2.015625 C 5.414062 -3.367188 4.75 -5.195312 4.75 -7.5 L 4.75 -31.90625 L 12.546875 -31.90625 L 12.546875 -7.953125 C 12.546875 -7.554688 12.6875 -7.210938 12.96875 -6.921875 C 13.257812 -6.640625 13.601562 -6.5 14 -6.5 L 19.609375 -6.5 L 19.609375 0 Z M 0.546875 -19.3125 L 0.546875 -25.65625 L 19.609375 -25.65625 L 19.609375 -19.3125 Z M 0.546875 -19.3125 "/></g></g></g><g fill="#222222" fill-opacity="1"><g transform="translate(61.442834, 46.866826)"><g><path d="M 11.796875 10.15625 L 11.796875 0.15625 C 9.929688 -0.3125 8.332031 -1.070312 7 -2.125 C 5.664062 -3.175781 4.648438 -4.457031 3.953125 -5.96875 C 3.253906 -7.488281 2.90625 -9.132812 2.90625 -10.90625 L 2.90625 -25.65625 L 10.65625 -25.65625 L 10.65625 -11.15625 C 10.65625 -10.25 10.867188 -9.410156 11.296875 -8.640625 C 11.734375 -7.878906 12.328125 -7.273438 13.078125 -6.828125 C 13.828125 -6.378906 14.671875 -6.15625 15.609375 -6.15625 C 16.578125 -6.15625 17.4375 -6.378906 18.1875 -6.828125 C 18.9375 -7.273438 19.523438 -7.878906 19.953125 -8.640625 C 20.390625 -9.410156 20.609375 -10.25 20.609375 -11.15625 L 20.609375 -25.65625 L 28.359375 -25.65625 L 28.359375 -10.90625 C 28.359375 -9.132812 28.015625 -7.5 27.328125 -6 C 26.648438 -4.5 25.648438 -3.210938 24.328125 -2.140625 C 23.015625 -1.078125 21.425781 -0.332031 19.5625 0.09375 L 19.5625 10.15625 Z M 11.796875 10.15625 "/></g></g></g><g fill="#222222" fill-opacity="1"><g transform="translate(88.047405, 46.866826)"><g><path d="M 8.453125 0 C 7.015625 0 5.796875 -0.296875 4.796875 -0.890625 C 3.796875 -1.492188 3.007812 -2.296875 2.4375 -3.296875 C 1.875 -4.296875 1.59375 -5.378906 1.59375 -6.546875 C 1.59375 -7.679688 1.882812 -8.707031 2.46875 -9.625 C 3.050781 -10.539062 3.84375 -11.316406 4.84375 -11.953125 L 14 -18.0625 C 14.164062 -18.15625 14.28125 -18.257812 14.34375 -18.375 C 14.414062 -18.5 14.453125 -18.59375 14.453125 -18.65625 C 14.453125 -18.820312 14.382812 -18.960938 14.25 -19.078125 C 14.113281 -19.191406 13.945312 -19.25 13.75 -19.25 L 2.703125 -19.25 L 2.703125 -25.65625 L 16.453125 -25.65625 C 17.785156 -25.65625 18.941406 -25.347656 19.921875 -24.734375 C 20.910156 -24.117188 21.695312 -23.3125 22.28125 -22.3125 C 22.863281 -21.3125 23.15625 -20.226562 23.15625 -19.0625 C 23.15625 -17.957031 22.878906 -16.925781 22.328125 -15.96875 C 21.773438 -15.019531 21.035156 -14.234375 20.109375 -13.609375 L 10.953125 -7.609375 C 10.816406 -7.503906 10.710938 -7.398438 10.640625 -7.296875 C 10.578125 -7.203125 10.546875 -7.101562 10.546875 -7 C 10.546875 -6.832031 10.613281 -6.691406 10.75 -6.578125 C 10.882812 -6.460938 11.050781 -6.40625 11.25 -6.40625 L 22.65625 -6.40625 L 22.65625 0 Z M 8.453125 0 "/></g></g></g><g fill="#222222" fill-opacity="1"><g transform="translate(108.650766, 46.866826)"><g><path d="M 16.3125 0 C 13.40625 0 10.851562 -0.539062 8.65625 -1.625 C 6.457031 -2.707031 4.75 -4.207031 3.53125 -6.125 C 2.3125 -8.039062 1.703125 -10.265625 1.703125 -12.796875 C 1.703125 -15.597656 2.285156 -18 3.453125 -20 C 4.617188 -22 6.175781 -23.539062 8.125 -24.625 C 10.070312 -25.71875 12.234375 -26.265625 14.609375 -26.265625 C 17.304688 -26.265625 19.5625 -25.695312 21.375 -24.5625 C 23.195312 -23.425781 24.570312 -21.878906 25.5 -19.921875 C 26.4375 -17.972656 26.90625 -15.75 26.90625 -13.25 C 26.90625 -12.820312 26.878906 -12.316406 26.828125 -11.734375 C 26.785156 -11.148438 26.726562 -10.691406 26.65625 -10.359375 L 9.859375 -10.359375 C 10.054688 -9.484375 10.4375 -8.742188 11 -8.140625 C 11.570312 -7.546875 12.289062 -7.109375 13.15625 -6.828125 C 14.019531 -6.546875 14.988281 -6.40625 16.0625 -6.40625 L 23.90625 -6.40625 L 23.90625 0 Z M 9.65625 -15.203125 L 19.40625 -15.203125 C 19.34375 -15.734375 19.242188 -16.25 19.109375 -16.75 C 18.972656 -17.25 18.765625 -17.691406 18.484375 -18.078125 C 18.203125 -18.460938 17.875 -18.796875 17.5 -19.078125 C 17.132812 -19.359375 16.707031 -19.582031 16.21875 -19.75 C 15.738281 -19.914062 15.203125 -20 14.609375 -20 C 13.835938 -20 13.148438 -19.863281 12.546875 -19.59375 C 11.953125 -19.332031 11.453125 -18.976562 11.046875 -18.53125 C 10.648438 -18.082031 10.34375 -17.566406 10.125 -16.984375 C 9.90625 -16.398438 9.75 -15.804688 9.65625 -15.203125 Z M 9.65625 -15.203125 "/></g></g></g><g fill="#222222" fill-opacity="1"><g transform="translate(132.50478, 46.866826)"><g><path d="M 6.703125 0.59375 C 5.367188 0.59375 4.222656 0.117188 3.265625 -0.828125 C 2.316406 -1.773438 1.84375 -2.898438 1.84375 -4.203125 C 1.84375 -5.535156 2.316406 -6.675781 3.265625 -7.625 C 4.222656 -8.570312 5.367188 -9.046875 6.703125 -9.046875 C 8.003906 -9.046875 9.128906 -8.570312 10.078125 -7.625 C 11.023438 -6.675781 11.5 -5.535156 11.5 -4.203125 C 11.5 -3.335938 11.28125 -2.535156 10.84375 -1.796875 C 10.414062 -1.066406 9.84375 -0.484375 9.125 -0.046875 C 8.40625 0.378906 7.597656 0.59375 6.703125 0.59375 Z M 6.703125 0.59375 "/></g></g></g></g></g></g></svg>